<svg width="36" height="36" viewBox="0 0 36 36" fill="none" xmlns="http://www.w3.org/2000/svg">
<g filter="url(#filter0_i_301_4837)">
<path d="M21.8635 8.23054C22.3412 7.41744 22.0556 6.37891 21.2255 5.91093C20.3954 5.44294 19.3352 5.72272 18.8575 6.53582L18.0242 7.95403L17.1909 6.53582C16.7131 5.72272 15.6529 5.44294 14.8228 5.91093C13.9927 6.37891 13.7071 7.41744 14.1849 8.23054L16.0233 11.3594L10.2084 21.2558H5.52372C4.56596 21.2558 3.78955 22.0163 3.78955 22.9545C3.78955 23.8927 4.56596 24.6532 5.52372 24.6532H21.8408C21.9838 24.285 22.1344 23.6532 21.9742 23.0725C21.7334 22.1995 20.8422 21.2558 19.3489 21.2558H14.2101L21.8635 8.23054Z" fill="url(#paint0_linear_301_4837)"/>
<path d="M21.8635 8.23054C22.3412 7.41744 22.0556 6.37891 21.2255 5.91093C20.3954 5.44294 19.3352 5.72272 18.8575 6.53582L18.0242 7.95403L17.1909 6.53582C16.7131 5.72272 15.6529 5.44294 14.8228 5.91093C13.9927 6.37891 13.7071 7.41744 14.1849 8.23054L16.0233 11.3594L10.2084 21.2558H5.52372C4.56596 21.2558 3.78955 22.0163 3.78955 22.9545C3.78955 23.8927 4.56596 24.6532 5.52372 24.6532H21.8408C21.9838 24.285 22.1344 23.6532 21.9742 23.0725C21.7334 22.1995 20.8422 21.2558 19.3489 21.2558H14.2101L21.8635 8.23054Z" fill="black" fill-opacity="0.6"/>
<path d="M11.1102 26.5316C10.8143 26.2098 10.1514 25.6954 9.5701 25.5261C8.68377 25.268 8.01186 25.43 7.67285 25.571L6.38111 27.7694C5.90335 28.5825 6.18896 29.6211 7.01905 30.0891C7.84913 30.557 8.90935 30.2773 9.38711 29.4642L11.1102 26.5316Z" fill="url(#paint1_linear_301_4837)"/>
<path d="M11.1102 26.5316C10.8143 26.2098 10.1514 25.6954 9.5701 25.5261C8.68377 25.268 8.01186 25.43 7.67285 25.571L6.38111 27.7694C5.90335 28.5825 6.18896 29.6211 7.01905 30.0891C7.84913 30.557 8.90935 30.2773 9.38711 29.4642L11.1102 26.5316Z" fill="black" fill-opacity="0.6"/>
<path d="M27.8362 24.6532H30.4764C31.4342 24.6532 32.2106 23.8927 32.2106 22.9545C32.2106 22.0163 31.4342 21.2558 30.4764 21.2558H25.84L20.6172 12.3672C20.2292 12.7283 19.4854 13.6509 19.3729 14.697C19.2284 16.0418 19.4452 17.1742 20.0955 18.2831C22.2819 22.0112 24.4717 25.7377 26.6612 29.4642C27.139 30.2773 28.1992 30.557 29.0293 30.0891C29.8594 29.6211 30.145 28.5825 29.6672 27.7694L27.8362 24.6532Z" fill="url(#paint2_linear_301_4837)"/>
<path d="M27.8362 24.6532H30.4764C31.4342 24.6532 32.2106 23.8927 32.2106 22.9545C32.2106 22.0163 31.4342 21.2558 30.4764 21.2558H25.84L20.6172 12.3672C20.2292 12.7283 19.4854 13.6509 19.3729 14.697C19.2284 16.0418 19.4452 17.1742 20.0955 18.2831C22.2819 22.0112 24.4717 25.7377 26.6612 29.4642C27.139 30.2773 28.1992 30.557 29.0293 30.0891C29.8594 29.6211 30.145 28.5825 29.6672 27.7694L27.8362 24.6532Z" fill="black" fill-opacity="0.6"/>
</g>
<path d="M17.0758 8.51129L18.0242 10.1254L18.9726 8.51129L19.8059 7.09307C19.9744 6.80617 20.3686 6.69058 20.6853 6.86914C20.9891 7.04043 21.0756 7.40011 20.9151 7.67329L13.2617 20.6986L12.288 22.3558H14.2101H19.3489C20.3205 22.3558 20.7973 22.9427 20.9138 23.365C20.9288 23.4192 20.9384 23.4822 20.9418 23.5532H5.52372C5.15193 23.5532 4.88955 23.2638 4.88955 22.9545C4.88955 22.6452 5.15193 22.3558 5.52372 22.3558H10.2084H10.8379L11.1568 21.8131L16.9717 11.9166L17.2991 11.3594L16.9717 10.8021L15.1333 7.67329C14.9727 7.40011 15.0592 7.04044 15.363 6.86914C15.6797 6.69058 16.0739 6.80617 16.2424 7.09307L17.0758 8.51129ZM9.26254 26.5823C9.36781 26.6129 9.5156 26.6821 9.68449 26.7867L8.4387 28.9069C8.27012 29.1938 7.87598 29.3094 7.55927 29.1308C7.25543 28.9595 7.169 28.5999 7.32951 28.3267L6.38111 27.7694L7.32951 28.3267L8.39861 26.5072C8.60698 26.477 8.90002 26.4767 9.26254 26.5823ZM20.4667 14.8145C20.4801 14.6897 20.5099 14.5608 20.5536 14.4302L24.8916 21.8131L25.2105 22.3558H25.84H30.4764C30.8482 22.3558 31.1106 22.6452 31.1106 22.9545C31.1106 23.2638 30.8482 23.5532 30.4764 23.5532H27.8362H25.914L26.8878 25.2104L28.7188 28.3267C28.8793 28.5999 28.7929 28.9595 28.4891 29.1308C28.1723 29.3094 27.7782 29.1938 27.6096 28.9069L27.3587 28.4799C25.2527 24.8957 23.147 21.3119 21.0444 17.7266L20.0955 18.2831L21.0444 17.7266C20.5249 16.8409 20.3448 15.9488 20.4667 14.8145L19.3729 14.697L20.4667 14.8145Z" stroke="url(#paint3_linear_301_4837)" stroke-width="2.2"/>
<defs>
<filter id="filter0_i_301_4837" x="1.60622" y="4.3342" width="30.6045" height="25.9816" filterUnits="userSpaceOnUse" color-interpolation-filters="sRGB">
<feFlood flood-opacity="0" result="BackgroundImageFix"/>
<feBlend mode="normal" in="SourceGraphic" in2="BackgroundImageFix" result="shape"/>
<feColorMatrix in="SourceAlpha" type="matrix" values="0 0 0 0 0 0 0 0 0 0 0 0 0 0 0 0 0 0 127 0" result="hardAlpha"/>
<feOffset dx="-2.18333" dy="-1.35"/>
<feGaussianBlur stdDeviation="1.93333"/>
<feComposite in2="hardAlpha" operator="arithmetic" k2="-1" k3="1"/>
<feColorMatrix type="matrix" values="0 0 0 0 0.980392 0 0 0 0 0.980392 0 0 0 0 0.980392 0 0 0 0.22 0"/>
<feBlend mode="normal" in2="shape" result="effect1_innerShadow_301_4837"/>
</filter>
<linearGradient id="paint0_linear_301_4837" x1="32.2106" y1="5.6842" x2="22.1488" y2="36.3414" gradientUnits="userSpaceOnUse">
<stop stop-color="#D6D3C2" stop-opacity="0.2"/>
<stop offset="1" stop-color="#5C5C5C" stop-opacity="0.14"/>
</linearGradient>
<linearGradient id="paint1_linear_301_4837" x1="32.2106" y1="5.6842" x2="22.1488" y2="36.3414" gradientUnits="userSpaceOnUse">
<stop stop-color="#D6D3C2" stop-opacity="0.2"/>
<stop offset="1" stop-color="#5C5C5C" stop-opacity="0.14"/>
</linearGradient>
<linearGradient id="paint2_linear_301_4837" x1="32.2106" y1="5.6842" x2="22.1488" y2="36.3414" gradientUnits="userSpaceOnUse">
<stop stop-color="#D6D3C2" stop-opacity="0.2"/>
<stop offset="1" stop-color="#5C5C5C" stop-opacity="0.14"/>
</linearGradient>
<linearGradient id="paint3_linear_301_4837" x1="32.2106" y1="5.6842" x2="22.1488" y2="36.3414" gradientUnits="userSpaceOnUse">
<stop stop-color="#999999"/>
<stop offset="1" stop-color="#141414"/>
</linearGradient>
</defs>
</svg>
