<svg width="36" height="36" viewBox="0 0 36 36" fill="none" xmlns="http://www.w3.org/2000/svg">
<mask id="mask0_301_4839" style="mask-type:alpha" maskUnits="userSpaceOnUse" x="5" y="4" width="27" height="29">
<path d="M30.9294 16.5353C32.3569 17.303 32.3569 19.2852 30.9294 20.0529L8.1008 32.3308C6.71058 33.0785 5 32.1082 5 30.572L5 6.01628C5 4.48003 6.71058 3.50976 8.1008 4.25746L30.9294 16.5353Z" fill="#C4C4C4"/>
</mask>
<g mask="url(#mask0_301_4839)">
<g filter="url(#filter0_i_301_4839)">
<path d="M5.72048 32.5882L20.0882 18.1754L5.95711 4C5.39335 4.36051 5 4.98292 5 5.73817V31.0254C5 31.6698 5.28631 32.2174 5.72048 32.5882Z" fill="url(#paint0_linear_301_4839)"/>
<path d="M5.72048 32.5882L20.0882 18.1754L5.95711 4C5.39335 4.36051 5 4.98292 5 5.73817V31.0254C5 31.6698 5.28631 32.2174 5.72048 32.5882Z" fill="black" fill-opacity="0.6"/>
</g>
<path d="M5.95672 5.1455L18.9459 18.1754L5.84275 31.3197C5.8207 31.2264 5.809 31.1281 5.809 31.0254V5.73817C5.809 5.51943 5.86245 5.31932 5.95672 5.1455Z" stroke="url(#paint1_linear_301_4839)" stroke-width="1.618"/>
<g filter="url(#filter1_i_301_4839)">
<path d="M30.9413 16.6626C32.3528 17.4049 32.3528 19.3215 30.9413 20.0638L25.2463 23.0587L20.0881 18.1693L24.9832 13.5293L30.9413 16.6626Z" fill="url(#paint2_linear_301_4839)"/>
<path d="M30.9413 16.6626C32.3528 17.4049 32.3528 19.3215 30.9413 20.0638L25.2463 23.0587L20.0881 18.1693L24.9832 13.5293L30.9413 16.6626Z" fill="black" fill-opacity="0.6"/>
</g>
<path d="M30.5647 17.3786C31.3996 17.8177 31.3996 18.9087 30.5647 19.3478L25.3824 22.0731L21.2641 18.1693L25.1194 14.5149L30.5647 17.3786Z" stroke="url(#paint3_linear_301_4839)" stroke-width="1.618"/>
<g filter="url(#filter2_i_301_4839)">
<path d="M24.8528 23.2808L19.7429 18.2939L5.79395 32.0962C6.40736 32.613 7.3248 32.7712 8.13198 32.3342L24.8528 23.2808Z" fill="url(#paint4_linear_301_4839)"/>
<path d="M24.8528 23.2808L19.7429 18.2939L5.79395 32.0962C6.40736 32.613 7.3248 32.7712 8.13198 32.3342L24.8528 23.2808Z" fill="black" fill-opacity="0.6"/>
</g>
<path d="M7.27222 31.7716L19.7469 19.4282L23.5015 23.0924L7.74679 31.6227C7.59262 31.7062 7.4319 31.7545 7.27222 31.7716Z" stroke="url(#paint5_linear_301_4839)" stroke-width="1.618"/>
<g filter="url(#filter3_i_301_4839)">
<path d="M5.79395 4.33305L19.8754 18.2941L24.8528 13.427L7.95785 4.26112C7.22737 3.86482 6.40892 3.94438 5.79395 4.33305Z" fill="url(#paint6_linear_301_4839)"/>
<path d="M5.79395 4.33305L19.8754 18.2941L24.8528 13.427L7.95785 4.26112C7.22737 3.86482 6.40892 3.94438 5.79395 4.33305Z" fill="black" fill-opacity="0.6"/>
</g>
<path d="M23.5032 13.6152L19.8794 17.1588L7.60652 4.9909L23.5032 13.6152Z" stroke="url(#paint7_linear_301_4839)" stroke-width="1.618"/>
</g>
<defs>
<filter id="filter0_i_301_4839" x="2.71294" y="3.12471" width="17.3752" height="29.4635" filterUnits="userSpaceOnUse" color-interpolation-filters="sRGB">
<feFlood flood-opacity="0" result="BackgroundImageFix"/>
<feBlend mode="normal" in="SourceGraphic" in2="BackgroundImageFix" result="shape"/>
<feColorMatrix in="SourceAlpha" type="matrix" values="0 0 0 0 0 0 0 0 0 0 0 0 0 0 0 0 0 0 127 0" result="hardAlpha"/>
<feOffset dx="-2.28706" dy="-0.875294"/>
<feGaussianBlur stdDeviation="2.99294"/>
<feComposite in2="hardAlpha" operator="arithmetic" k2="-1" k3="1"/>
<feColorMatrix type="matrix" values="0 0 0 0 0.980392 0 0 0 0 0.980392 0 0 0 0 0.980392 0 0 0 0.22 0"/>
<feBlend mode="normal" in2="shape" result="effect1_innerShadow_301_4839"/>
</filter>
<filter id="filter1_i_301_4839" x="17.8011" y="12.654" width="14.1989" height="10.4047" filterUnits="userSpaceOnUse" color-interpolation-filters="sRGB">
<feFlood flood-opacity="0" result="BackgroundImageFix"/>
<feBlend mode="normal" in="SourceGraphic" in2="BackgroundImageFix" result="shape"/>
<feColorMatrix in="SourceAlpha" type="matrix" values="0 0 0 0 0 0 0 0 0 0 0 0 0 0 0 0 0 0 127 0" result="hardAlpha"/>
<feOffset dx="-2.28706" dy="-0.875294"/>
<feGaussianBlur stdDeviation="2.99294"/>
<feComposite in2="hardAlpha" operator="arithmetic" k2="-1" k3="1"/>
<feColorMatrix type="matrix" values="0 0 0 0 0.980392 0 0 0 0 0.980392 0 0 0 0 0.980392 0 0 0 0.22 0"/>
<feBlend mode="normal" in2="shape" result="effect1_innerShadow_301_4839"/>
</filter>
<filter id="filter2_i_301_4839" x="3.50689" y="17.4187" width="21.3459" height="15.1694" filterUnits="userSpaceOnUse" color-interpolation-filters="sRGB">
<feFlood flood-opacity="0" result="BackgroundImageFix"/>
<feBlend mode="normal" in="SourceGraphic" in2="BackgroundImageFix" result="shape"/>
<feColorMatrix in="SourceAlpha" type="matrix" values="0 0 0 0 0 0 0 0 0 0 0 0 0 0 0 0 0 0 127 0" result="hardAlpha"/>
<feOffset dx="-2.28706" dy="-0.875294"/>
<feGaussianBlur stdDeviation="2.99294"/>
<feComposite in2="hardAlpha" operator="arithmetic" k2="-1" k3="1"/>
<feColorMatrix type="matrix" values="0 0 0 0 0.980392 0 0 0 0 0.980392 0 0 0 0 0.980392 0 0 0 0.22 0"/>
<feBlend mode="normal" in2="shape" result="effect1_innerShadow_301_4839"/>
</filter>
<filter id="filter3_i_301_4839" x="3.50689" y="3.12471" width="21.3459" height="15.1694" filterUnits="userSpaceOnUse" color-interpolation-filters="sRGB">
<feFlood flood-opacity="0" result="BackgroundImageFix"/>
<feBlend mode="normal" in="SourceGraphic" in2="BackgroundImageFix" result="shape"/>
<feColorMatrix in="SourceAlpha" type="matrix" values="0 0 0 0 0 0 0 0 0 0 0 0 0 0 0 0 0 0 127 0" result="hardAlpha"/>
<feOffset dx="-2.28706" dy="-0.875294"/>
<feGaussianBlur stdDeviation="2.99294"/>
<feComposite in2="hardAlpha" operator="arithmetic" k2="-1" k3="1"/>
<feColorMatrix type="matrix" values="0 0 0 0 0.980392 0 0 0 0 0.980392 0 0 0 0 0.980392 0 0 0 0.22 0"/>
<feBlend mode="normal" in2="shape" result="effect1_innerShadow_301_4839"/>
</filter>
<linearGradient id="paint0_linear_301_4839" x1="20.0882" y1="4" x2="1.41894" y2="30.0187" gradientUnits="userSpaceOnUse">
<stop stop-color="#D6D3C2" stop-opacity="0.2"/>
<stop offset="1" stop-color="#5C5C5C" stop-opacity="0.14"/>
</linearGradient>
<linearGradient id="paint1_linear_301_4839" x1="20.0882" y1="4" x2="1.41894" y2="30.0187" gradientUnits="userSpaceOnUse">
<stop stop-color="#999999"/>
<stop offset="1" stop-color="#141414"/>
</linearGradient>
<linearGradient id="paint2_linear_301_4839" x1="31.9999" y1="13.5293" x2="28.3542" y2="25.563" gradientUnits="userSpaceOnUse">
<stop stop-color="#D6D3C2" stop-opacity="0.2"/>
<stop offset="1" stop-color="#5C5C5C" stop-opacity="0.14"/>
</linearGradient>
<linearGradient id="paint3_linear_301_4839" x1="31.9999" y1="13.5293" x2="28.3542" y2="25.563" gradientUnits="userSpaceOnUse">
<stop stop-color="#999999"/>
<stop offset="1" stop-color="#141414"/>
</linearGradient>
<linearGradient id="paint4_linear_301_4839" x1="24.8528" y1="18.2939" x2="19.6733" y2="36.5301" gradientUnits="userSpaceOnUse">
<stop stop-color="#D6D3C2" stop-opacity="0.2"/>
<stop offset="1" stop-color="#5C5C5C" stop-opacity="0.14"/>
</linearGradient>
<linearGradient id="paint5_linear_301_4839" x1="24.8528" y1="18.2939" x2="19.6733" y2="36.5301" gradientUnits="userSpaceOnUse">
<stop stop-color="#999999"/>
<stop offset="1" stop-color="#141414"/>
</linearGradient>
<linearGradient id="paint6_linear_301_4839" x1="24.8528" y1="4" x2="19.6733" y2="22.2362" gradientUnits="userSpaceOnUse">
<stop stop-color="#D6D3C2" stop-opacity="0.2"/>
<stop offset="1" stop-color="#5C5C5C" stop-opacity="0.14"/>
</linearGradient>
<linearGradient id="paint7_linear_301_4839" x1="24.8528" y1="4" x2="19.6733" y2="22.2362" gradientUnits="userSpaceOnUse">
<stop stop-color="#999999"/>
<stop offset="1" stop-color="#141414"/>
</linearGradient>
</defs>
</svg>
