<svg width="54" height="54" viewBox="0 0 54 54" fill="none" xmlns="http://www.w3.org/2000/svg">
<g filter="url(#filter0_i_301_4755)">
<path fill-rule="evenodd" clip-rule="evenodd" d="M46.7374 14.1606C49.542 14.1606 52.07 12.4736 53.1411 9.88731C54.2121 7.301 53.615 4.32552 51.6285 2.35012C49.642 0.374725 46.6579 -0.210951 44.0695 0.866549C41.4812 1.94405 39.7991 4.47219 39.8086 7.27058C39.8216 11.0796 42.9199 14.1606 46.7374 14.1606ZM46.7373 4.28394C48.3903 4.28394 49.7304 5.62103 49.7304 7.27041C49.7304 8.91979 48.3903 10.2569 46.7373 10.2569C45.0843 10.2569 43.7442 8.91979 43.7442 7.27041C43.7442 5.62103 45.0843 4.28394 46.7373 4.28394ZM4.26902 37.6522C4.26902 45.4594 8.58186 49.7392 16.3827 49.7392C17.4707 49.7519 18.3496 50.6289 18.3624 51.7145C18.3495 52.7962 17.4669 53.6664 16.3827 53.6663C6.48436 53.6663 0.333252 47.5288 0.333252 37.6522V18.4401C0.333252 8.54007 6.48436 2.40253 16.3827 2.40253H33.7283C34.8125 2.41541 35.6845 3.29602 35.6844 4.37783C35.6845 4.89958 35.4752 5.39962 35.1032 5.76633C34.7313 6.13305 34.2276 6.3359 33.7048 6.32962H16.3827C8.58186 6.32962 4.26902 10.633 4.26902 18.4401V37.6522ZM31.9843 32.5264C31.6541 32.9331 31.1832 33.2016 30.6645 33.2789C30.1482 33.3313 29.632 33.1793 29.2269 32.8556L21.9917 27.1884L15.487 35.6305C15.1769 36.0515 14.7105 36.3309 14.1922 36.406C13.6739 36.4812 13.1471 36.3458 12.7297 36.0302C11.8777 35.3638 11.7203 34.1382 12.3761 33.2789L20.0827 23.2613C20.4042 22.846 20.8781 22.5754 21.3998 22.5092C21.9216 22.443 22.4483 22.5867 22.8637 22.9086L30.0989 28.5758L36.4621 20.463C37.1606 19.8003 38.2387 19.7441 39.0026 20.3304C39.7665 20.9167 39.9886 21.9709 39.5259 22.8145L31.9843 32.5264ZM49.8249 18.4402C48.7446 18.4402 47.8688 19.3141 47.8688 20.392V37.6524C47.7981 45.4595 43.4853 49.7393 35.6844 49.7393H27.8129C26.7249 49.752 25.846 50.629 25.8333 51.7146C25.8462 52.7964 26.7287 53.6665 27.8129 53.6664H35.6844C45.5828 53.6664 51.7575 47.5289 51.7575 37.6524V20.392C51.7575 19.3232 50.896 18.4531 49.8249 18.4402Z" fill="url(#paint0_linear_301_4755)"/>
</g>
<defs>
<filter id="filter0_i_301_4755" x="0.333252" y="0.333313" width="53.3333" height="53.3331" filterUnits="userSpaceOnUse" color-interpolation-filters="sRGB">
<feFlood flood-opacity="0" result="BackgroundImageFix"/>
<feBlend mode="normal" in="SourceGraphic" in2="BackgroundImageFix" result="shape"/>
<feColorMatrix in="SourceAlpha" type="matrix" values="0 0 0 0 0 0 0 0 0 0 0 0 0 0 0 0 0 0 127 0" result="hardAlpha"/>
<feOffset dx="-1.62" dy="1.62"/>
<feComposite in2="hardAlpha" operator="arithmetic" k2="-1" k3="1"/>
<feColorMatrix type="matrix" values="0 0 0 0 0.68 0 0 0 0 0.656 0 0 0 0 0.52 0 0 0 1 0"/>
<feBlend mode="normal" in2="shape" result="effect1_innerShadow_301_4755"/>
</filter>
<linearGradient id="paint0_linear_301_4755" x1="0.333253" y1="53.6664" x2="64.3776" y2="21.9883" gradientUnits="userSpaceOnUse">
<stop stop-color="#ADA785"/>
<stop offset="1" stop-color="#D6D3C2"/>
</linearGradient>
</defs>
</svg>
