<svg width="48" height="30" viewBox="0 0 48 30" fill="none" xmlns="http://www.w3.org/2000/svg">
<g filter="url(#filter0_i_301_4822)">
<path d="M23.3643 2.24597V13.087H1.95791C0.877141 13.087 0 13.9439 0 14.9997C0 16.0555 0.877141 16.9124 1.95791 16.9124H23.3643V27.7534C23.3643 28.4497 23.7507 29.0923 24.3772 29.4289C25.0011 29.7656 25.7634 29.7426 26.3638 29.3728L47.0837 16.6191C47.6554 16.2672 48 15.6577 48 14.9997C48 14.3417 47.6554 13.7322 47.0837 13.3803L34.1902 5.44652C33.2792 4.88292 32.0679 5.15069 31.4909 6.04327C30.9166 6.93841 31.1907 8.11916 32.107 8.68277L42.3665 14.9997L27.2801 24.2902V2.24597C27.2801 1.19017 26.403 0.333292 25.3222 0.333292C24.2415 0.333292 23.3643 1.19017 23.3643 2.24597Z" fill="url(#paint0_linear_301_4822)"/>
</g>
<defs>
<filter id="filter0_i_301_4822" x="0" y="0.333313" width="48" height="29.3333" filterUnits="userSpaceOnUse" color-interpolation-filters="sRGB">
<feFlood flood-opacity="0" result="BackgroundImageFix"/>
<feBlend mode="normal" in="SourceGraphic" in2="BackgroundImageFix" result="shape"/>
<feColorMatrix in="SourceAlpha" type="matrix" values="0 0 0 0 0 0 0 0 0 0 0 0 0 0 0 0 0 0 127 0" result="hardAlpha"/>
<feOffset dx="-1.62" dy="1.62"/>
<feComposite in2="hardAlpha" operator="arithmetic" k2="-1" k3="1"/>
<feColorMatrix type="matrix" values="0 0 0 0 0.68 0 0 0 0 0.656 0 0 0 0 0.52 0 0 0 1 0"/>
<feBlend mode="normal" in2="shape" result="effect1_innerShadow_301_4822"/>
</filter>
<linearGradient id="paint0_linear_301_4822" x1="48" y1="29.6666" x2="35.8572" y2="-10.5053" gradientUnits="userSpaceOnUse">
<stop stop-color="#ADA785"/>
<stop offset="1" stop-color="#D6D3C2"/>
</linearGradient>
</defs>
</svg>
