<svg width="48" height="30" viewBox="0 0 48 30" fill="none" xmlns="http://www.w3.org/2000/svg">
<g filter="url(#filter0_i_301_4819)">
<path d="M24.6357 27.754V16.9129L46.0421 16.9129C47.1229 16.9129 48 16.056 48 15.0002C48 13.9444 47.1229 13.0876 46.0421 13.0876L24.6357 13.0876L24.6357 2.2465C24.6357 1.55029 24.2493 0.907627 23.6228 0.570995C22.9989 0.234364 22.2366 0.257316 21.6362 0.627101L0.916298 13.3808C0.344589 13.7328 0 14.3423 0 15.0002C0 15.6582 0.344589 16.2677 0.916298 16.6196L13.8098 24.5534C14.7208 25.117 15.9321 24.8492 16.5091 23.9567C17.0834 23.0615 16.8093 21.8808 15.893 21.3172L5.63354 15.0002L20.7199 5.70972L20.7199 27.754C20.7199 28.8098 21.597 29.6666 22.6778 29.6666C23.7585 29.6666 24.6357 28.8098 24.6357 27.754Z" fill="url(#paint0_linear_301_4819)"/>
</g>
<defs>
<filter id="filter0_i_301_4819" x="0" y="0.333313" width="48" height="29.3333" filterUnits="userSpaceOnUse" color-interpolation-filters="sRGB">
<feFlood flood-opacity="0" result="BackgroundImageFix"/>
<feBlend mode="normal" in="SourceGraphic" in2="BackgroundImageFix" result="shape"/>
<feColorMatrix in="SourceAlpha" type="matrix" values="0 0 0 0 0 0 0 0 0 0 0 0 0 0 0 0 0 0 127 0" result="hardAlpha"/>
<feOffset dx="-1.62" dy="1.62"/>
<feComposite in2="hardAlpha" operator="arithmetic" k2="-1" k3="1"/>
<feColorMatrix type="matrix" values="0 0 0 0 0.68 0 0 0 0 0.656 0 0 0 0 0.52 0 0 0 1 0"/>
<feBlend mode="normal" in2="shape" result="effect1_innerShadow_301_4819"/>
</filter>
<linearGradient id="paint0_linear_301_4819" x1="-1.44605e-06" y1="0.333313" x2="12.1428" y2="40.5053" gradientUnits="userSpaceOnUse">
<stop stop-color="#ADA785"/>
<stop offset="1" stop-color="#D6D3C2"/>
</linearGradient>
</defs>
</svg>
