<svg width="48" height="54" viewBox="0 0 48 54" fill="none" xmlns="http://www.w3.org/2000/svg">
<g filter="url(#filter0_i_301_4771)">
<path fill-rule="evenodd" clip-rule="evenodd" d="M35.8725 2.29352V5.05323C43.8957 5.83161 48 10.266 48 18.2385V40.2926C48 49.1615 42.9449 53.6666 32.9971 53.6666H15.0029C5.05507 53.6666 0 49.1615 0 40.2926V18.2385C0 12.9314 1.8087 9.13383 5.51884 6.91663C6.10369 6.51742 6.86034 6.48955 7.47204 6.84468C8.08375 7.19981 8.44498 7.87668 8.40451 8.59193C8.36405 9.30719 7.92887 9.93744 7.28116 10.2188C4.82319 11.6813 3.66377 14.2287 3.66377 18.2385V18.9461H37.4957C38.5074 18.9461 39.3275 19.7804 39.3275 20.8095C39.3275 21.8387 38.5074 22.6729 37.4957 22.6729H3.66377V40.2926C3.66377 47.0622 6.95652 49.8691 15.0029 49.9163H32.9971C40.9275 49.9163 44.313 47.0386 44.313 40.2691V18.2149C44.313 12.3181 41.7391 9.46405 35.8725 8.78002V10.5727C35.7372 11.5281 34.9147 12.2257 33.9664 12.1893C33.018 12.1529 32.2496 11.3943 32.1855 10.4311V2.1284C32.2035 1.6298 32.4173 1.15936 32.779 0.822414C33.1408 0.48547 33.6203 0.310171 34.1101 0.335769C35.1201 0.398942 35.8994 1.2646 35.8725 2.29352ZM15.2235 11.7807C14.875 12.1309 14.403 12.3244 13.9132 12.3181C12.9105 12.2924 12.1147 11.4513 12.1277 10.4311V2.29351C12.2331 1.33887 13.0268 0.617169 13.9712 0.617169C14.9156 0.617169 15.7092 1.33887 15.8146 2.29351V4.86453H26.2958C27.3075 4.86453 28.1277 5.6988 28.1277 6.72792C28.1277 7.75705 27.3075 8.59132 26.2958 8.59132H15.7683V10.4547C15.7683 10.953 15.5721 11.4306 15.2235 11.7807ZM35.1769 28.6406C33.8962 28.6406 32.858 29.6967 32.858 30.9994C32.858 32.3021 33.8962 33.3581 35.1769 33.3581C36.4575 33.3581 37.4957 32.3021 37.4957 30.9994C37.4957 30.3697 37.2483 29.7661 36.8084 29.3231C36.3685 28.8801 35.7727 28.6343 35.1537 28.6406H35.1769ZM21.7273 30.9993C21.7273 29.6966 22.7655 28.6406 24.0462 28.6406C25.3268 28.6406 26.365 29.6966 26.365 30.9993C26.365 32.302 25.3268 33.358 24.0462 33.358C22.7655 33.358 21.7273 32.302 21.7273 30.9993ZM12.9392 28.6406C11.6586 28.6406 10.6204 29.6967 10.6204 30.9994C10.6204 32.3021 11.6586 33.3581 12.9392 33.3581C14.2199 33.3581 15.2581 32.3021 15.2581 30.9994C15.2581 30.3697 15.0106 29.7661 14.5707 29.3231C14.1308 28.8801 13.535 28.6343 12.916 28.6406H12.9392ZM32.858 40.5522C32.858 39.2495 33.8962 38.1934 35.1769 38.1934H35.1537C35.7727 38.1871 36.3685 38.4329 36.8084 38.8759C37.2483 39.3189 37.4957 39.9225 37.4957 40.5522C37.4957 41.8549 36.4575 42.9109 35.1769 42.9109C33.8962 42.9109 32.858 41.8549 32.858 40.5522ZM24.0462 38.1934C22.7655 38.1934 21.7273 39.2494 21.7273 40.5521C21.7273 41.8548 22.7655 42.9108 24.0462 42.9108C25.3268 42.9108 26.365 41.8548 26.365 40.5521C26.365 39.2494 25.3268 38.1934 24.0462 38.1934ZM10.6204 40.5522C10.6204 39.2495 11.6586 38.1934 12.9392 38.1934H12.916C13.535 38.1871 14.1308 38.4329 14.5707 38.8759C15.0106 39.3189 15.2581 39.9225 15.2581 40.5522C15.2581 41.8549 14.2199 42.9109 12.9392 42.9109C11.6586 42.9109 10.6204 41.8549 10.6204 40.5522Z" fill="url(#paint0_linear_301_4771)"/>
</g>
<defs>
<filter id="filter0_i_301_4771" x="0" y="0.333313" width="48" height="53.3333" filterUnits="userSpaceOnUse" color-interpolation-filters="sRGB">
<feFlood flood-opacity="0" result="BackgroundImageFix"/>
<feBlend mode="normal" in="SourceGraphic" in2="BackgroundImageFix" result="shape"/>
<feColorMatrix in="SourceAlpha" type="matrix" values="0 0 0 0 0 0 0 0 0 0 0 0 0 0 0 0 0 0 127 0" result="hardAlpha"/>
<feOffset dx="-1.62" dy="1.62"/>
<feComposite in2="hardAlpha" operator="arithmetic" k2="-1" k3="1"/>
<feColorMatrix type="matrix" values="0 0 0 0 0.68 0 0 0 0 0.656 0 0 0 0 0.52 0 0 0 1 0"/>
<feBlend mode="normal" in2="shape" result="effect1_innerShadow_301_4771"/>
</filter>
<linearGradient id="paint0_linear_301_4771" x1="7.15256e-07" y1="53.6667" x2="59.8763" y2="27.0119" gradientUnits="userSpaceOnUse">
<stop stop-color="#ADA785"/>
<stop offset="1" stop-color="#D6D3C2"/>
</linearGradient>
</defs>
</svg>
