<svg width="54" height="54" viewBox="0 0 54 54" fill="none" xmlns="http://www.w3.org/2000/svg">
<g filter="url(#filter0_i_301_4764)">
<path fill-rule="evenodd" clip-rule="evenodd" d="M53.6666 23.2005C53.6666 24.3274 52.753 25.241 51.6261 25.241H51.6027C51.0595 25.2411 50.5392 25.0222 50.1596 24.6337C49.78 24.2452 49.573 23.7201 49.5857 23.1771V17.0088C49.5857 8.89385 45.106 4.41423 36.9911 4.41423H17.0087C8.87034 4.41423 4.41417 8.89385 4.41417 17.0088V37.0146C4.41417 45.1296 8.89379 49.5857 17.0087 49.5857H36.9911C45.1295 49.5857 49.5857 45.1061 49.5857 37.0146C49.5857 35.8877 50.4992 34.9742 51.6261 34.9742C52.753 34.9742 53.6666 35.8877 53.6666 37.0146C53.6666 47.2873 47.2872 53.6666 37.0146 53.6666H17.0087C6.71261 53.6666 0.333252 47.2873 0.333252 37.0146V17.0088C0.333252 6.71267 6.71261 0.333313 17.0087 0.333313H36.9911C47.2403 0.333313 53.6666 6.71267 53.6666 17.0088V23.2005ZM13.561 39.5008V22.5908V22.4267C13.5793 21.8874 13.8128 21.3779 14.2095 21.012C14.6062 20.6462 15.1329 20.4546 15.6719 20.48C16.2131 20.4984 16.7249 20.7311 17.0944 21.1271C17.464 21.523 17.6609 22.0496 17.642 22.5908V39.6415C17.6031 40.7685 16.6581 41.6505 15.5311 41.6116C14.4042 41.5728 13.5222 40.6277 13.561 39.5008ZM25.0533 14.5224V39.5239C25.0533 40.6508 25.9668 41.5643 27.0938 41.5643C28.2207 41.5643 29.1342 40.6508 29.1342 39.5239V14.5224C29.1342 13.3955 28.2207 12.4819 27.0938 12.4819C25.9668 12.4819 25.0533 13.3955 25.0533 14.5224ZM36.358 39.5005V31.5263C36.358 30.3993 37.2715 29.4858 38.3984 29.4858C39.5253 29.4858 40.4389 30.3993 40.4389 31.5263V39.5005C40.4389 40.6274 39.5253 41.5409 38.3984 41.5409C37.2715 41.5409 36.358 40.6274 36.358 39.5005Z" fill="url(#paint0_linear_301_4764)"/>
</g>
<defs>
<filter id="filter0_i_301_4764" x="0.333252" y="0.333313" width="53.3333" height="53.3333" filterUnits="userSpaceOnUse" color-interpolation-filters="sRGB">
<feFlood flood-opacity="0" result="BackgroundImageFix"/>
<feBlend mode="normal" in="SourceGraphic" in2="BackgroundImageFix" result="shape"/>
<feColorMatrix in="SourceAlpha" type="matrix" values="0 0 0 0 0 0 0 0 0 0 0 0 0 0 0 0 0 0 127 0" result="hardAlpha"/>
<feOffset dx="-1.62" dy="1.62"/>
<feComposite in2="hardAlpha" operator="arithmetic" k2="-1" k3="1"/>
<feColorMatrix type="matrix" values="0 0 0 0 0.68 0 0 0 0 0.656 0 0 0 0 0.52 0 0 0 1 0"/>
<feBlend mode="normal" in2="shape" result="effect1_innerShadow_301_4764"/>
</filter>
<linearGradient id="paint0_linear_301_4764" x1="0.333253" y1="53.6667" x2="64.3778" y2="21.9885" gradientUnits="userSpaceOnUse">
<stop stop-color="#ADA785"/>
<stop offset="1" stop-color="#D6D3C2"/>
</linearGradient>
</defs>
</svg>
