<svg width="54" height="54" viewBox="0 0 54 54" fill="none" xmlns="http://www.w3.org/2000/svg">
<g filter="url(#filter0_i_301_4806)">
<path fill-rule="evenodd" clip-rule="evenodd" d="M5.52326 29.8656C3.94993 28.2917 3.94993 25.7309 5.52326 24.133L7.44326 22.2097C8.96326 20.6919 9.78993 18.6912 9.78993 16.5545V13.807C9.78993 11.5929 11.6033 9.779 13.8166 9.779H16.5633C18.6966 9.779 20.6966 8.95207 22.2166 7.43157L24.1366 5.51094C25.6833 3.96377 28.2166 3.9371 29.8166 5.46026C29.8296 5.47197 29.8363 5.47796 29.8428 5.48413C29.8496 5.4906 29.8563 5.49726 29.8699 5.51091L29.8699 5.51094C30.2166 5.83105 30.6966 6.04445 31.2299 6.04445C32.3233 6.04445 33.2299 5.16417 33.2299 4.0438C33.2299 3.51029 33.0166 3.03014 32.6699 2.65668C32.5633 2.54998 32.4566 2.46995 32.3499 2.38993C29.2033 -0.464337 24.3233 -0.33096 21.3099 2.68602L19.3899 4.60398C18.6433 5.35356 17.6299 5.7777 16.5633 5.7777H13.8166C9.38993 5.7777 5.78993 9.37887 5.78993 13.807V16.5545C5.78993 17.6216 5.36326 18.6352 4.6166 19.3821L2.66993 21.3294C-0.450071 24.4771 -0.450071 29.5748 2.6966 32.6958C3.0966 33.0933 3.60326 33.28 4.10993 33.28C4.6166 33.28 5.14993 33.0666 5.52326 32.6958C6.2966 31.8929 6.2966 30.6391 5.52326 29.8656ZM49.3861 19.3899L51.3008 21.3052C52.8181 22.8124 53.6581 24.8264 53.6661 26.9737C53.6714 29.1211 52.8421 31.1404 51.3301 32.6609L49.3834 34.6082C48.6421 35.3551 48.2154 36.3875 48.2128 37.4465V40.1861C48.2128 44.6142 44.6101 48.218 40.1834 48.218C39.0794 48.218 38.1834 47.3217 38.1834 46.2174C38.1834 45.113 39.0794 44.2167 40.1834 44.2167C42.4074 44.2167 44.2128 42.4081 44.2128 40.1861V37.4438C44.2154 35.3045 45.0448 33.2931 46.5514 31.7833L48.4714 29.86C49.2528 29.0758 49.6688 28.0621 49.6661 26.9844C49.6634 25.9094 49.2394 24.8984 48.4768 24.1382L46.5541 22.2149C45.0448 20.6944 44.2154 18.6857 44.2128 16.5517V13.8068C44.2128 11.5821 42.4074 9.77614 40.1834 9.77614C39.0794 9.77614 38.1834 8.87985 38.1834 7.77549C38.1834 6.67113 39.0794 5.77484 40.1834 5.77484C44.6101 5.77484 48.2128 9.37601 48.2128 13.8068V16.549C48.2154 17.6187 48.6314 18.6297 49.3861 19.3899ZM26.9978 49.6706C28.0912 49.7133 29.0938 49.2518 29.8565 48.4809C30.6352 47.702 31.9018 47.694 32.6858 48.4729C33.4672 49.2545 33.4698 50.5216 32.6912 51.3058C31.1258 52.8797 29.0618 53.6666 26.9978 53.6666C24.9498 53.6666 22.8992 52.8903 21.3365 51.3352L19.3898 49.3879C18.6352 48.6383 17.6245 48.2195 16.5498 48.2168H13.8138C9.38716 48.2168 5.78449 44.6156 5.78449 40.1875C5.78449 39.0832 6.68049 38.1869 7.78449 38.1869C8.88849 38.1869 9.78449 39.0832 9.78449 40.1875C9.78449 42.4096 11.5898 44.2155 13.8138 44.2155H16.5552C18.6912 44.2182 20.7018 45.0504 22.2138 46.5523L24.1365 48.4782C24.9152 49.2545 25.9258 49.6706 26.9978 49.6706ZM18.7318 32.4366C17.9504 33.2182 17.9504 34.4853 18.7318 35.2668C19.1211 35.6563 19.6331 35.851 20.1451 35.851C20.6571 35.851 21.1691 35.6563 21.5611 35.2668L35.2651 21.5557C36.0464 20.7741 36.0464 19.507 35.2651 18.7255C34.4838 17.9439 33.2198 17.9439 32.4384 18.7255L18.7318 32.4366ZM20.1213 17.8672C21.3986 17.8672 22.436 18.9049 22.436 20.1826C22.436 21.4604 21.3986 22.4954 20.1213 22.4954C18.844 22.4954 17.8066 21.4604 17.8066 20.1826C17.8066 18.9049 18.844 17.8672 20.1213 17.8672ZM33.8522 31.5435C35.1296 31.5435 36.1669 32.5812 36.1669 33.859C36.1669 35.1367 35.1296 36.1744 33.8522 36.1744C32.5722 36.1744 31.5376 35.1367 31.5376 33.859C31.5376 32.5812 32.5722 31.5435 33.8522 31.5435Z" fill="url(#paint0_linear_301_4806)"/>
</g>
<defs>
<filter id="filter0_i_301_4806" x="0.333252" y="0.333313" width="53.3328" height="53.3333" filterUnits="userSpaceOnUse" color-interpolation-filters="sRGB">
<feFlood flood-opacity="0" result="BackgroundImageFix"/>
<feBlend mode="normal" in="SourceGraphic" in2="BackgroundImageFix" result="shape"/>
<feColorMatrix in="SourceAlpha" type="matrix" values="0 0 0 0 0 0 0 0 0 0 0 0 0 0 0 0 0 0 127 0" result="hardAlpha"/>
<feOffset dx="-1.62" dy="1.62"/>
<feComposite in2="hardAlpha" operator="arithmetic" k2="-1" k3="1"/>
<feColorMatrix type="matrix" values="0 0 0 0 0.68 0 0 0 0 0.656 0 0 0 0 0.52 0 0 0 1 0"/>
<feBlend mode="normal" in2="shape" result="effect1_innerShadow_301_4806"/>
</filter>
<linearGradient id="paint0_linear_301_4806" x1="0.333253" y1="53.6666" x2="64.3775" y2="21.9889" gradientUnits="userSpaceOnUse">
<stop stop-color="#ADA785"/>
<stop offset="1" stop-color="#D6D3C2"/>
</linearGradient>
</defs>
</svg>
