<svg width="48" height="54" viewBox="0 0 48 54" fill="none" xmlns="http://www.w3.org/2000/svg">
<g filter="url(#filter0_i_301_4799)">
<path fill-rule="evenodd" clip-rule="evenodd" d="M13.701 0.333313H34.2758C42.8447 0.333313 47.9768 5.53714 48 14.2259V39.7741C48 48.4628 42.8911 53.6666 34.299 53.6666H26.6821C25.7053 53.5574 24.966 52.7205 24.966 51.724C24.966 50.7276 25.7053 49.8907 26.6821 49.7814H34.2758C40.8244 49.7814 44.1219 46.4143 44.1219 39.7741V14.2259C44.1219 7.5857 40.8244 4.21852 34.2758 4.21852H13.701C7.15239 4.21852 3.83164 7.5857 3.83164 14.2259V39.7741C3.83164 46.4143 7.15239 49.7814 13.701 49.7814C14.6778 49.8907 15.4172 50.7276 15.4172 51.724C15.4172 52.7205 14.6778 53.5574 13.701 53.6666C5.13208 53.6666 0 48.4628 0 39.7741V14.2259C0 5.51359 5.13208 0.333313 13.701 0.333313ZM14.3744 17.6638H21.6894C22.6662 17.5546 23.4056 16.7177 23.4056 15.7212C23.4056 14.7247 22.6662 13.8878 21.6894 13.7786H14.3744C13.3976 13.8878 12.6582 14.7247 12.6582 15.7212C12.6582 16.7177 13.3976 17.5546 14.3744 17.6638ZM33.5789 28.9426H14.3743H14.3511C13.3742 28.8334 12.6349 27.9964 12.6349 27C12.6349 26.0035 13.3742 25.1666 14.3511 25.0574H33.5789C34.3137 24.9752 35.0302 25.3265 35.423 25.9615C35.8158 26.5965 35.8158 27.4034 35.423 28.0385C35.0302 28.6735 34.3137 29.0247 33.5789 28.9426ZM33.5793 40.2212H14.3746H14.3514C13.2997 40.2212 12.4472 39.3567 12.4472 38.2904C12.4472 37.224 13.2997 36.3595 14.3514 36.3595H33.5793C34.6309 36.3595 35.4835 37.224 35.4835 38.2904C35.4835 39.3567 34.6309 40.2212 33.5793 40.2212Z" fill="url(#paint0_linear_301_4799)"/>
</g>
<defs>
<filter id="filter0_i_301_4799" x="0" y="0.333313" width="48" height="53.3333" filterUnits="userSpaceOnUse" color-interpolation-filters="sRGB">
<feFlood flood-opacity="0" result="BackgroundImageFix"/>
<feBlend mode="normal" in="SourceGraphic" in2="BackgroundImageFix" result="shape"/>
<feColorMatrix in="SourceAlpha" type="matrix" values="0 0 0 0 0 0 0 0 0 0 0 0 0 0 0 0 0 0 127 0" result="hardAlpha"/>
<feOffset dx="-1.62" dy="1.62"/>
<feComposite in2="hardAlpha" operator="arithmetic" k2="-1" k3="1"/>
<feColorMatrix type="matrix" values="0 0 0 0 0.68 0 0 0 0 0.656 0 0 0 0 0.52 0 0 0 1 0"/>
<feBlend mode="normal" in2="shape" result="effect1_innerShadow_301_4799"/>
</filter>
<linearGradient id="paint0_linear_301_4799" x1="7.15256e-07" y1="53.6667" x2="59.8763" y2="27.0119" gradientUnits="userSpaceOnUse">
<stop stop-color="#ADA785"/>
<stop offset="1" stop-color="#D6D3C2"/>
</linearGradient>
</defs>
</svg>
