<svg width="50" height="48" viewBox="0 0 50 48" fill="none" xmlns="http://www.w3.org/2000/svg">
<g filter="url(#filter0_i_301_4817)">
<path d="M12.0619 5.80165C12.0619 9.00582 9.36172 11.6033 6.03093 11.6033C2.70014 11.6033 0 9.00582 0 5.80165C0 2.59749 2.70014 0 6.03093 0C9.36172 0 12.0619 2.59749 12.0619 5.80165Z" fill="url(#paint0_linear_301_4817)"/>
<path d="M0.824742 15.8678H11.134V48H0.824742V15.8678Z" fill="url(#paint1_linear_301_4817)"/>
<path d="M27.732 15.8678H17.4227V48H27.732C27.732 48 27.732 37.8843 27.732 31.5595C27.732 27.7633 28.9922 23.9504 34.0206 23.9504C39.7034 23.9504 39.6692 28.9184 39.6427 32.7672C39.608 37.7981 39.6907 42.9321 39.6907 48H50V31.0413C49.9127 20.2127 47.1694 15.2231 38.1443 15.2231C32.7847 15.2231 29.4624 17.7259 27.732 19.9903V15.8678Z" fill="url(#paint2_linear_301_4817)"/>
</g>
<defs>
<filter id="filter0_i_301_4817" x="0" y="0" width="50" height="48" filterUnits="userSpaceOnUse" color-interpolation-filters="sRGB">
<feFlood flood-opacity="0" result="BackgroundImageFix"/>
<feBlend mode="normal" in="SourceGraphic" in2="BackgroundImageFix" result="shape"/>
<feColorMatrix in="SourceAlpha" type="matrix" values="0 0 0 0 0 0 0 0 0 0 0 0 0 0 0 0 0 0 127 0" result="hardAlpha"/>
<feOffset dx="-1.62" dy="1.62"/>
<feComposite in2="hardAlpha" operator="arithmetic" k2="-1" k3="1"/>
<feColorMatrix type="matrix" values="0 0 0 0 0.68 0 0 0 0 0.656 0 0 0 0 0.52 0 0 0 1 0"/>
<feBlend mode="normal" in2="shape" result="effect1_innerShadow_301_4817"/>
</filter>
<linearGradient id="paint0_linear_301_4817" x1="7.45058e-07" y1="48" x2="59.0543" y2="17.5731" gradientUnits="userSpaceOnUse">
<stop stop-color="#ADA785"/>
<stop offset="1" stop-color="#D6D3C2"/>
</linearGradient>
<linearGradient id="paint1_linear_301_4817" x1="7.45058e-07" y1="48" x2="59.0543" y2="17.5731" gradientUnits="userSpaceOnUse">
<stop stop-color="#ADA785"/>
<stop offset="1" stop-color="#D6D3C2"/>
</linearGradient>
<linearGradient id="paint2_linear_301_4817" x1="7.45058e-07" y1="48" x2="59.0543" y2="17.5731" gradientUnits="userSpaceOnUse">
<stop stop-color="#ADA785"/>
<stop offset="1" stop-color="#D6D3C2"/>
</linearGradient>
</defs>
</svg>
