<svg width="46" height="54" viewBox="0 0 46 54" fill="none" xmlns="http://www.w3.org/2000/svg">
<g filter="url(#filter0_i_301_4792)">
<path fill-rule="evenodd" clip-rule="evenodd" d="M23.0268 4.33331H22.9808C17.3134 4.33331 12.6977 8.85065 12.6706 14.424V18.0053H33.3262V14.4693C33.3262 8.87998 28.705 4.33331 23.0268 4.33331ZM37.3919 14.4693V18.728C42.1919 20.384 45.6666 24.8346 45.6666 30.1173V41.5546C45.6666 48.2346 40.1429 53.6666 33.3535 53.6666H33.2749H24.1789C23.0568 53.6666 22.1462 52.7706 22.1462 51.6666C22.1462 50.5626 23.0568 49.6666 24.1789 49.6666H33.2749C37.8228 49.6666 41.5197 46.0293 41.5197 41.5546C41.5197 41.4571 41.5452 41.3688 41.5707 41.2805C41.5815 41.2432 41.5922 41.206 41.6011 41.168V30.1173C41.6011 25.6426 37.9014 22.0053 33.3535 22.0053H12.6464C8.09841 22.0053 4.39878 25.6426 4.39878 30.1173V41.168C4.40744 41.2089 4.41859 41.249 4.42975 41.2891C4.45353 41.3746 4.47738 41.4603 4.47738 41.5546C4.47738 46.0293 8.17701 49.6666 12.725 49.6666C13.8471 49.6666 14.7577 50.5626 14.7577 51.6666C14.7577 52.7706 13.8471 53.6666 12.725 53.6666C12.7155 53.6666 12.7067 53.6653 12.6979 53.664C12.6891 53.6626 12.6803 53.6613 12.6708 53.6613C12.6667 53.6613 12.6626 53.6626 12.6586 53.664C12.6545 53.6653 12.6504 53.6666 12.6464 53.6666C5.85695 53.6666 0.333252 48.2346 0.333252 41.5546V30.1173C0.333252 24.8346 3.80521 20.384 8.60524 18.728V14.4693C8.64048 6.63465 15.0803 0.333313 22.9728 0.333313H23.0352C30.9467 0.333313 37.3919 6.67465 37.3919 14.4693ZM25.0322 32.8738V38.7965C25.0322 39.9005 24.1215 40.7965 22.9994 40.7965C21.8774 40.7965 20.9667 39.9005 20.9667 38.7965V32.8738C20.9667 31.7698 21.8774 30.8738 22.9994 30.8738C24.1215 30.8738 25.0322 31.7698 25.0322 32.8738Z" fill="url(#paint0_linear_301_4792)"/>
</g>
<defs>
<filter id="filter0_i_301_4792" x="0.333252" y="0.333313" width="45.3333" height="53.3333" filterUnits="userSpaceOnUse" color-interpolation-filters="sRGB">
<feFlood flood-opacity="0" result="BackgroundImageFix"/>
<feBlend mode="normal" in="SourceGraphic" in2="BackgroundImageFix" result="shape"/>
<feColorMatrix in="SourceAlpha" type="matrix" values="0 0 0 0 0 0 0 0 0 0 0 0 0 0 0 0 0 0 127 0" result="hardAlpha"/>
<feOffset dx="-1.62" dy="1.62"/>
<feComposite in2="hardAlpha" operator="arithmetic" k2="-1" k3="1"/>
<feColorMatrix type="matrix" values="0 0 0 0 0.68 0 0 0 0 0.656 0 0 0 0 0.52 0 0 0 1 0"/>
<feBlend mode="normal" in2="shape" result="effect1_innerShadow_301_4792"/>
</filter>
<linearGradient id="paint0_linear_301_4792" x1="0.333253" y1="53.6667" x2="57.9119" y2="29.4587" gradientUnits="userSpaceOnUse">
<stop stop-color="#ADA785"/>
<stop offset="1" stop-color="#D6D3C2"/>
</linearGradient>
</defs>
</svg>
