<svg width="54" height="54" viewBox="0 0 54 54" fill="none" xmlns="http://www.w3.org/2000/svg">
<g filter="url(#filter0_i_301_4787)">
<path fill-rule="evenodd" clip-rule="evenodd" d="M15.4411 0.33313H38.5585C47.5958 0.33313 53.6678 6.67446 53.6678 16.1091V37.8905C53.6678 47.3251 47.5931 53.6665 38.5558 53.6665H24.2091C23.1051 53.6665 22.2091 52.7705 22.2091 51.6665C22.2091 50.5625 23.1051 49.6665 24.2091 49.6665H38.5558C45.3051 49.6665 49.6678 45.0451 49.6678 37.8905V16.1091C49.6678 8.95446 45.3051 4.33313 38.5585 4.33313H15.4411C8.69447 4.33313 4.33447 8.95446 4.33447 16.1091V37.8905C4.33447 45.0451 8.69447 49.6665 15.4411 49.6665C16.5451 49.6665 17.4411 50.5625 17.4411 51.6665C17.4411 52.7705 16.5451 53.6665 15.4411 53.6665C6.40381 53.6665 0.334473 47.3251 0.334473 37.8905V16.1091C0.334473 6.67446 6.40381 0.33313 15.4411 0.33313ZM12.2465 24.1531C12.6998 23.1451 13.8785 22.6945 14.8918 23.1505C15.8998 23.6011 16.3478 24.7851 15.8945 25.7931C15.7238 26.1745 15.6385 26.5798 15.6385 26.9985C15.6385 28.6198 16.9558 29.9371 18.5745 29.9371C20.1958 29.9371 21.5132 28.6198 21.5132 26.9985C21.5132 25.3798 20.1958 24.0625 18.5745 24.0625C17.4705 24.0625 16.5745 23.1665 16.5745 22.0625C16.5745 20.9585 17.4705 20.0625 18.5745 20.0625C21.7025 20.0625 24.3185 22.1531 25.1825 24.9985H40.3612C41.4652 24.9985 42.3612 25.8945 42.3612 26.9985V31.9371C42.3612 33.0411 41.4652 33.9371 40.3612 33.9371C39.2572 33.9371 38.3612 33.0411 38.3612 31.9371V28.9985H34.8172V31.9371C34.8172 33.0411 33.9212 33.9371 32.8172 33.9371C31.7132 33.9371 30.8172 33.0411 30.8172 31.9371V28.9985H25.1825C24.3185 31.8465 21.7025 33.9371 18.5745 33.9371C14.7505 33.9371 11.6385 30.8251 11.6385 26.9985C11.6385 26.0091 11.8412 25.0545 12.2465 24.1531Z" fill="url(#paint0_linear_301_4787)"/>
</g>
<defs>
<filter id="filter0_i_301_4787" x="0.334473" y="0.33313" width="53.3333" height="53.3333" filterUnits="userSpaceOnUse" color-interpolation-filters="sRGB">
<feFlood flood-opacity="0" result="BackgroundImageFix"/>
<feBlend mode="normal" in="SourceGraphic" in2="BackgroundImageFix" result="shape"/>
<feColorMatrix in="SourceAlpha" type="matrix" values="0 0 0 0 0 0 0 0 0 0 0 0 0 0 0 0 0 0 127 0" result="hardAlpha"/>
<feOffset dx="-1.62" dy="1.62"/>
<feComposite in2="hardAlpha" operator="arithmetic" k2="-1" k3="1"/>
<feColorMatrix type="matrix" values="0 0 0 0 0.68 0 0 0 0 0.656 0 0 0 0 0.52 0 0 0 1 0"/>
<feBlend mode="normal" in2="shape" result="effect1_innerShadow_301_4787"/>
</filter>
<linearGradient id="paint0_linear_301_4787" x1="0.334473" y1="53.6665" x2="64.379" y2="21.9883" gradientUnits="userSpaceOnUse">
<stop stop-color="#ADA785"/>
<stop offset="1" stop-color="#D6D3C2"/>
</linearGradient>
</defs>
</svg>
