<svg width="60" height="48" viewBox="0 0 60 48" fill="none" xmlns="http://www.w3.org/2000/svg">
<g filter="url(#filter0_i_301_4740)">
<path fill-rule="evenodd" clip-rule="evenodd" d="M9.59121 15.3654C9.59121 16.4637 8.67921 17.358 7.55921 17.358C6.43921 17.358 5.52988 16.4637 5.52988 15.3654V10.4075C5.52988 4.67553 10.2845 0.00784485 16.1272 0.00261495L20.4712 0H20.4739C21.5939 0 22.5032 0.891698 22.5032 1.99259C22.5032 3.09087 21.5965 3.98257 20.4739 3.98257L16.1325 3.98518C12.5245 3.99041 9.59121 6.86947 9.59121 10.4075V15.3654ZM39.6022 3.98186H43.8502C47.4688 3.98186 50.4128 6.86876 50.4128 10.4172V15.3673C50.4128 16.463 51.3222 17.3573 52.4422 17.3573C53.5622 17.3573 54.4715 16.463 54.4715 15.3673V10.4172C54.4715 4.67221 49.7088 0.00190735 43.8502 0.00190735H39.6022C38.4822 0.00190735 37.5728 0.89099 37.5728 1.99188C37.5728 3.09016 38.4822 3.98186 39.6022 3.98186ZM57.304 24.11H2.69596C1.57863 24.11 0.666626 25.0017 0.666626 26.1025C0.666626 27.2008 1.57863 28.0925 2.69596 28.0925H5.52796V37.59C5.52796 43.3246 10.2853 47.9923 16.1306 47.9975L20.472 48.0001C21.5946 48.0001 22.5013 47.1084 22.504 46.0075C22.504 44.9093 21.5946 44.0176 20.4746 44.0176L16.1333 44.0149C12.5253 44.0097 9.58929 41.1307 9.58929 37.59V28.0925H50.4133V37.5822C50.4133 41.1333 47.4693 44.0176 43.8506 44.0176H39.6026C38.4826 44.0176 37.5733 44.9093 37.5733 46.0075C37.5733 47.1084 38.4826 48.0001 39.6026 48.0001H43.8506C49.7066 48.0001 54.472 43.3298 54.472 37.5822V28.0925H57.304C58.424 28.0925 59.3333 27.2008 59.3333 26.1025C59.3333 25.0017 58.424 24.11 57.304 24.11ZM25.0449 17.3581H34.9569C36.0795 17.3581 36.9889 16.4638 36.9889 15.3656C36.9889 14.2673 36.0795 13.3756 34.9569 13.3756H25.0449C23.9249 13.3756 23.0155 14.2673 23.0155 15.3656C23.0155 16.4638 23.9249 17.3581 25.0449 17.3581ZM25.0456 34.0638H34.9576C36.0776 34.0638 36.9869 34.9555 36.9869 36.0538C36.9869 37.1547 36.0776 38.0438 34.9576 38.0438H25.0456C23.9229 38.0438 23.0136 37.1547 23.0136 36.0538C23.0136 34.9555 23.9229 34.0638 25.0456 34.0638Z" fill="url(#paint0_linear_301_4740)"/>
</g>
<defs>
<filter id="filter0_i_301_4740" x="0.666626" y="0" width="58.6666" height="48.0001" filterUnits="userSpaceOnUse" color-interpolation-filters="sRGB">
<feFlood flood-opacity="0" result="BackgroundImageFix"/>
<feBlend mode="normal" in="SourceGraphic" in2="BackgroundImageFix" result="shape"/>
<feColorMatrix in="SourceAlpha" type="matrix" values="0 0 0 0 0 0 0 0 0 0 0 0 0 0 0 0 0 0 127 0" result="hardAlpha"/>
<feOffset dx="-1.62" dy="1.62"/>
<feComposite in2="hardAlpha" operator="arithmetic" k2="-1" k3="1"/>
<feColorMatrix type="matrix" values="0 0 0 0 0.68 0 0 0 0 0.656 0 0 0 0 0.52 0 0 0 1 0"/>
<feBlend mode="normal" in2="shape" result="effect1_innerShadow_301_4740"/>
</filter>
<linearGradient id="paint0_linear_301_4740" x1="0.666627" y1="48.0001" x2="64.8824" y2="9.17902" gradientUnits="userSpaceOnUse">
<stop stop-color="#ADA785"/>
<stop offset="1" stop-color="#D6D3C2"/>
</linearGradient>
</defs>
</svg>
