<svg width="46" height="54" viewBox="0 0 46 54" fill="none" xmlns="http://www.w3.org/2000/svg">
<g filter="url(#filter0_i_301_4782)">
<path fill-rule="evenodd" clip-rule="evenodd" d="M24.6409 0.601306L42.3544 6.64649C44.3357 7.3238 45.6666 9.14776 45.6666 11.1904V28.8993C45.6666 34.2671 43.6716 39.4643 40.0521 43.5202C38.3946 45.3789 36.2679 46.9762 33.5512 48.4054L23.9768 53.432C23.6777 53.5867 23.3484 53.6666 23.0164 53.6666C22.6871 53.6666 22.3578 53.5867 22.0587 53.432L12.4651 48.4028C9.74294 46.9708 7.61348 45.3735 5.95876 43.5229C2.33374 39.4617 0.333252 34.2618 0.333252 28.8886C0.333252 27.806 1.23882 26.926 2.35295 26.926C3.46707 26.926 4.37264 27.806 4.37264 28.8886C4.37264 33.3205 6.01913 37.6031 9.00751 40.9523C10.3384 42.4429 12.0974 43.7496 14.3833 44.9495L23.0164 49.4748L31.6303 44.9522C33.9107 43.7549 35.6697 42.4483 37.0033 40.9523C39.9862 37.6057 41.6299 33.3285 41.6299 28.8993V11.1904C41.6299 10.8117 41.383 10.4757 41.018 10.3504L23.3045 4.30521C23.1097 4.23855 22.8929 4.23855 22.6953 4.30521L4.98458 10.3504C4.61961 10.4757 4.37264 10.8117 4.37264 11.1904V16.2569C4.37264 17.3422 3.46707 18.2222 2.35295 18.2222C1.23882 18.2222 0.333252 17.3422 0.333252 16.2569V11.1904C0.333252 9.14776 1.66691 7.3238 3.64818 6.64649L21.3589 0.601306C22.4182 0.243982 23.5844 0.243982 24.6409 0.601306ZM21.0964 33.18C20.5586 33.18 20.0482 32.972 19.6695 32.604L14.5764 27.6548C13.7888 26.8868 13.7888 25.6495 14.5764 24.8816C15.3667 24.1136 16.6427 24.1136 17.4303 24.8816L21.0964 28.4415L30.1576 19.639C30.9452 18.8737 32.224 18.8737 33.0115 19.639C33.7991 20.4043 33.7991 21.647 33.0115 22.4123L22.5234 32.604C22.1447 32.972 21.6316 33.18 21.0964 33.18Z" fill="url(#paint0_linear_301_4782)"/>
</g>
<defs>
<filter id="filter0_i_301_4782" x="0.333252" y="0.333313" width="45.3333" height="53.3333" filterUnits="userSpaceOnUse" color-interpolation-filters="sRGB">
<feFlood flood-opacity="0" result="BackgroundImageFix"/>
<feBlend mode="normal" in="SourceGraphic" in2="BackgroundImageFix" result="shape"/>
<feColorMatrix in="SourceAlpha" type="matrix" values="0 0 0 0 0 0 0 0 0 0 0 0 0 0 0 0 0 0 127 0" result="hardAlpha"/>
<feOffset dx="-1.62" dy="1.62"/>
<feComposite in2="hardAlpha" operator="arithmetic" k2="-1" k3="1"/>
<feColorMatrix type="matrix" values="0 0 0 0 0.68 0 0 0 0 0.656 0 0 0 0 0.52 0 0 0 1 0"/>
<feBlend mode="normal" in2="shape" result="effect1_innerShadow_301_4782"/>
</filter>
<linearGradient id="paint0_linear_301_4782" x1="0.333253" y1="53.6667" x2="57.9119" y2="29.4587" gradientUnits="userSpaceOnUse">
<stop stop-color="#ADA785"/>
<stop offset="1" stop-color="#D6D3C2"/>
</linearGradient>
</defs>
</svg>
