<svg width="56" height="46" viewBox="0 0 56 46" fill="none" xmlns="http://www.w3.org/2000/svg">
<g filter="url(#filter0_i_301_4815)">
<path d="M17.5775 46C11.1075 46 5.07635 44.1182 0 40.8712C4.30999 41.1501 11.9161 40.4822 16.6472 35.9696C9.53015 35.643 6.32052 30.1846 5.90188 27.8519C6.50659 28.0852 9.3906 28.3651 11.0187 27.712C2.8318 25.6592 1.57586 18.4746 1.85495 16.2819C3.38999 17.355 5.99491 17.7282 7.01827 17.6349C-0.610414 12.1765 2.13405 3.96552 3.48303 2.1927C8.95765 9.77733 17.1624 14.0371 27.3128 14.2741C27.1214 13.4347 27.0203 12.5608 27.0203 11.6633C27.0203 5.22183 32.2268 0 38.6494 0C42.0051 0 45.0288 1.42551 47.1514 3.70568C49.3938 3.18021 52.7686 1.95014 54.4184 0.88641C53.5868 3.87221 50.9979 6.36298 49.4318 7.28615C49.4191 7.25461 49.4448 7.31756 49.4318 7.28615C50.8074 7.07807 54.5296 6.36274 56 5.36511C55.2728 7.0425 52.528 9.83146 50.2754 11.3928C50.6945 29.8761 36.553 46 17.5775 46Z" fill="url(#paint0_linear_301_4815)"/>
</g>
<defs>
<filter id="filter0_i_301_4815" x="0" y="0" width="56" height="46" filterUnits="userSpaceOnUse" color-interpolation-filters="sRGB">
<feFlood flood-opacity="0" result="BackgroundImageFix"/>
<feBlend mode="normal" in="SourceGraphic" in2="BackgroundImageFix" result="shape"/>
<feColorMatrix in="SourceAlpha" type="matrix" values="0 0 0 0 0 0 0 0 0 0 0 0 0 0 0 0 0 0 127 0" result="hardAlpha"/>
<feOffset dx="-1.62" dy="1.62"/>
<feComposite in2="hardAlpha" operator="arithmetic" k2="-1" k3="1"/>
<feColorMatrix type="matrix" values="0 0 0 0 0.68 0 0 0 0 0.656 0 0 0 0 0.52 0 0 0 1 0"/>
<feBlend mode="normal" in2="shape" result="effect1_innerShadow_301_4815"/>
</filter>
<linearGradient id="paint0_linear_301_4815" x1="8.34465e-07" y1="46" x2="61.4265" y2="9.01181" gradientUnits="userSpaceOnUse">
<stop stop-color="#ADA785"/>
<stop offset="1" stop-color="#D6D3C2"/>
</linearGradient>
</defs>
</svg>
