<svg width="64" height="64" viewBox="0 0 64 64" fill="none" xmlns="http://www.w3.org/2000/svg">
<g opacity="0.8">
<path d="M4 32C4 16.536 16.536 4 32 4C47.464 4 60 16.536 60 32C60 47.464 47.464 60 32 60C16.536 60 4 47.464 4 32Z" fill="black"/>
<path d="M19.2 21.9429V22.7317L22.0649 23.1857C24.0949 23.5074 25.731 25.0432 26.204 27.0711L29.5578 41.4499C29.6408 41.8058 29.9541 42.0572 30.3147 42.0572H35.021C35.3314 42.0572 35.6121 41.8699 35.7351 41.5808L43.8534 22.4935C43.9642 22.2331 43.7759 21.9429 43.4964 21.9429H39.1602C38.8471 21.9429 38.5645 22.1333 38.4432 22.426L33.0048 35.5496L30.8354 23.8711C30.6276 22.7528 29.6645 21.9429 28.5425 21.9429H19.2Z" fill="white"/>
</g>
</svg>
