<svg width="54" height="52" viewBox="0 0 54 52" fill="none" xmlns="http://www.w3.org/2000/svg">
<g filter="url(#filter0_i_301_4735)">
<path fill-rule="evenodd" clip-rule="evenodd" d="M15.7596 0.666687H38.2378C46.7451 0.666687 53.6666 7.7461 53.6666 16.4505V35.5496C53.6666 44.2539 46.7451 51.3334 38.2378 51.3334C37.2565 51.3334 36.4601 50.5185 36.4601 49.5144C36.4601 48.5103 37.2565 47.6954 38.2378 47.6954C44.7848 47.6954 50.111 42.2482 50.111 35.5496V20.3067H41.3549C38.4796 20.3091 36.1353 22.7053 36.133 25.6496C36.1353 28.5939 38.4796 30.99 41.3549 30.9925H44.9934C45.9747 30.9925 46.7712 31.8074 46.7712 32.8114C46.7712 33.8155 45.9747 34.6304 44.9934 34.6304H41.3549C36.517 34.628 32.5798 30.5996 32.5774 25.6496C32.5798 20.6996 36.517 16.6712 41.3549 16.6687H50.111V16.4505C50.111 9.75181 44.7848 4.30462 38.2378 4.30462H15.7596C10.4832 4.30462 6.05533 7.86494 4.51222 12.7422H27.9457C28.927 12.7422 29.7235 13.5571 29.7235 14.5612C29.7235 15.5676 28.927 16.3801 27.9457 16.3801H3.89592C3.89592 16.3922 3.89414 16.4038 3.89236 16.4153C3.89059 16.4268 3.88881 16.4383 3.88881 16.4505V35.5496C3.88881 42.2482 9.21266 47.6954 15.7596 47.6954H27.0687C28.05 47.6954 28.8464 48.5103 28.8464 49.5144C28.8464 50.5185 28.05 51.3334 27.0687 51.3334H15.7596C7.25236 51.3334 0.333252 44.2539 0.333252 35.5496V16.4505C0.333252 7.7461 7.25236 0.666687 15.7596 0.666687ZM39.9627 25.4856C39.9627 24.4816 40.7591 23.6667 41.7405 23.6667H42.5488C43.5301 23.6667 44.3266 24.4816 44.3266 25.4856C44.3266 26.4897 43.5301 27.3046 42.5488 27.3046H41.7405C40.7591 27.3046 39.9627 26.4897 39.9627 25.4856Z" fill="url(#paint0_linear_301_4735)"/>
</g>
<defs>
<filter id="filter0_i_301_4735" x="0.333252" y="0.666687" width="53.3333" height="50.6667" filterUnits="userSpaceOnUse" color-interpolation-filters="sRGB">
<feFlood flood-opacity="0" result="BackgroundImageFix"/>
<feBlend mode="normal" in="SourceGraphic" in2="BackgroundImageFix" result="shape"/>
<feColorMatrix in="SourceAlpha" type="matrix" values="0 0 0 0 0 0 0 0 0 0 0 0 0 0 0 0 0 0 127 0" result="hardAlpha"/>
<feOffset dx="-1.62" dy="1.62"/>
<feComposite in2="hardAlpha" operator="arithmetic" k2="-1" k3="1"/>
<feColorMatrix type="matrix" values="0 0 0 0 0.68 0 0 0 0 0.656 0 0 0 0 0.52 0 0 0 1 0"/>
<feBlend mode="normal" in2="shape" result="effect1_innerShadow_301_4735"/>
</filter>
<linearGradient id="paint0_linear_301_4735" x1="0.333253" y1="51.3334" x2="63.0461" y2="18.6813" gradientUnits="userSpaceOnUse">
<stop stop-color="#ADA785"/>
<stop offset="1" stop-color="#D6D3C2"/>
</linearGradient>
</defs>
</svg>
